<svg xmlns="http://www.w3.org/2000/svg" aria-hidden="true" overflow="hidden" style="position:absolute;width:0;height:0">
  <defs>
    <symbol id="icon-arrow" viewBox="0 0 36 32">
      <path d="M1.062 17.414a2 2 0 0 1 0-2.828L13.79 1.858a2 2 0 1 1 2.828 2.828L5.304 16l11.314 11.314a2 2 0 1 1-2.828 2.828L1.062 17.414zM36 18H2.476v-4H36v4z"/>
    </symbol>
    <symbol id="icon-facebook" viewBox="0 0 32 32">
      <path d="M0 16C0 7.163 7.163 0 16 0s16 7.163 16 16-7.163 16-16 16S0 24.837 0 16zm17.668 9.408v-8.705h2.403l.319-3h-2.721l.004-1.501c0-.782.074-1.202 1.198-1.202h1.502V8H17.97c-2.887 0-3.903 1.455-3.903 3.902v1.801h-1.799v3h1.799v8.705h3.602z"/>
    </symbol>
    <symbol id="icon-instagram" viewBox="0 0 32 32">
      <path d="M0 16C0 7.163 7.163 0 16 0s16 7.163 16 16-7.163 16-16 16S0 24.837 0 16zm16.001-8.533c-2.317 0-2.608.01-3.519.052-.909.042-1.528.185-2.071.396-.561.218-1.037.51-1.512.984s-.766.95-.985 1.511c-.212.543-.356 1.163-.396 2.071-.041.91-.051 1.201-.051 3.519s.01 2.607.052 3.518c.042.909.186 1.529.396 2.071.218.561.51 1.037.984 1.512s.95.767 1.511.985c.543.211 1.163.355 2.072.396.91.041 1.201.052 3.518.052s2.608-.01 3.518-.052c.908-.042 1.529-.185 2.072-.396.561-.218 1.036-.51 1.511-.985s.766-.95.985-1.512c.21-.543.354-1.163.396-2.071.041-.91.052-1.2.052-3.518s-.011-2.608-.052-3.519c-.043-.909-.187-1.529-.396-2.071-.219-.561-.51-1.037-.985-1.512s-.949-.766-1.511-.984c-.544-.211-1.164-.355-2.073-.396-.91-.041-1.2-.052-3.518-.052h.003z"/>
      <path d="M15.235 9.005h.766c2.278 0 2.548.008 3.448.049.832.038 1.284.177 1.584.294.398.155.682.34.981.638s.484.583.639.981c.117.3.256.752.294 1.584.041.899.05 1.17.05 3.447s-.009 2.548-.05 3.447c-.038.832-.177 1.284-.294 1.584-.155.398-.34.682-.639.98s-.582.483-.981.638c-.3.117-.752.256-1.584.294-.9.041-1.17.05-3.448.05s-2.549-.009-3.448-.05c-.832-.038-1.284-.177-1.585-.294-.398-.155-.683-.34-.981-.638s-.484-.582-.639-.981c-.117-.3-.256-.752-.294-1.584-.041-.9-.049-1.17-.049-3.449s.008-2.548.049-3.447c.038-.832.177-1.284.294-1.584.155-.398.34-.683.639-.981s.583-.484.981-.639c.301-.117.753-.256 1.585-.294.787-.036 1.092-.046 2.683-.048v.002zm5.32 1.417a1.024 1.024 0 1 0 0 2.048 1.024 1.024 0 0 0 0-2.048zM16 11.618a4.382 4.382 0 1 0 0 8.764 4.382 4.382 0 0 0 0-8.764z"/>
      <path d="M16.001 13.155a2.844 2.844 0 1 1 .001 5.689 2.844 2.844 0 0 1-.001-5.689z"/>
    </symbol>
    <symbol id="icon-home" viewBox="0 0 32 32">
        <path d="M32 18.451l-16-12.42-16 12.42v-5.064l16-12.42 16 12.42zM28 18v12h-8v-8h-8v8h-8v-12l12-9z"></path>
    </symbol>
    <symbol id="icon-menu" viewBox="0 0 32 32">
      <path d="M29.333 24.007c0 0.733-0.595 1.327-1.327 1.327h-10.68c-0.733 0-1.327-0.594-1.327-1.327s0.594-1.327 1.327-1.327h10.68c0.733 0 1.327 0.593 1.327 1.327zM29.333 16c0 0.733-0.595 1.327-1.327 1.327h-24.013c-0.733 0-1.327-0.594-1.327-1.327s0.594-1.327 1.327-1.327h24.013c0.733 0 1.327 0.595 1.327 1.327zM28.007 9.32c0.733 0 1.327-0.594 1.327-1.327s-0.594-1.327-1.327-1.327h-16.013c-0.733 0-1.327 0.594-1.327 1.327s0.594 1.327 1.327 1.327h16.013z"></path>
    </symbol>
    <symbol id="icon-close" viewBox="0 0 32 32">
      <path stroke-linejoin="miter" stroke-linecap="round" stroke-miterlimit="4" stroke-width="2" d="M8 8l8 8 8-8M8 24l8-8 8 8"></path>
    </symbol>
    <symbol id="icon-textCircleModal" viewBox="0 0 32 32">
<path d="M15.343 5.846l-0.293 0.028-0.193-2.070-0.727 0.069-0.024-0.257 1.744-0.167 0.024 0.257-0.724 0.069 0.193 2.070zM17.118 4.088c0.215 0.017 0.382 0.106 0.5 0.266 0.12 0.161 0.167 0.392 0.142 0.695-0.017 0.198-0.061 0.363-0.134 0.495-0.070 0.13-0.162 0.226-0.277 0.287-0.112 0.059-0.241 0.083-0.387 0.071-0.086-0.006-0.166-0.025-0.24-0.057l0.005 0.002c-0.066-0.028-0.123-0.064-0.173-0.106l0.001 0.001c-0.042-0.040-0.080-0.085-0.111-0.134l-0.002-0.003-0.020-0.002c0.001 0.037 0.002 0.085 0.001 0.141-0 0.052-0.002 0.104-0.006 0.154l0-0.007-0.061 0.718-0.287-0.023 0.214-2.532 0.235 0.019 0.019 0.241 0.013 0.001c0.039-0.047 0.084-0.090 0.136-0.127 0.054-0.037 0.115-0.065 0.185-0.084 0.072-0.018 0.154-0.024 0.248-0.016zM17.045 4.325c-0.118-0.009-0.214 0.006-0.29 0.046-0.075 0.038-0.133 0.1-0.173 0.186s-0.067 0.198-0.081 0.335l-0.005 0.055c-0.012 0.144-0.007 0.267 0.015 0.369s0.067 0.183 0.134 0.241c0.070 0.058 0.167 0.092 0.294 0.102 0.107 0.009 0.196-0.014 0.269-0.067 0.075-0.053 0.132-0.128 0.174-0.226 0.043-0.099 0.071-0.214 0.082-0.345 0.017-0.2-0.009-0.363-0.077-0.489-0.066-0.126-0.18-0.195-0.341-0.208zM18.977 4.411c0.207 0.054 0.348 0.139 0.423 0.256s0.086 0.274 0.033 0.472l-0.309 1.155-0.203-0.053 0.011-0.254-0.013-0.003c-0.056 0.043-0.12 0.081-0.187 0.113l-0.006 0.003c-0.059 0.026-0.128 0.042-0.201 0.042h-0c-0.071 0.002-0.153-0.010-0.248-0.034-0.1-0.025-0.187-0.068-0.263-0.127l0.002 0.001c-0.068-0.054-0.119-0.127-0.145-0.211l-0.001-0.003c-0.026-0.088-0.024-0.189 0.006-0.303 0.045-0.169 0.146-0.281 0.304-0.337 0.158-0.058 0.376-0.055 0.655 0.009l0.291 0.066 0.027-0.101c0.038-0.141 0.034-0.247-0.013-0.318s-0.126-0.121-0.238-0.15c-0.062-0.017-0.133-0.027-0.207-0.027-0.020 0-0.040 0.001-0.060 0.002l0.003-0c-0.091 0.004-0.176 0.015-0.26 0.032l0.011-0.002-0.030-0.231c0.086-0.021 0.184-0.032 0.285-0.032 0.002 0 0.004 0 0.005 0h-0c0.009-0 0.020-0 0.030-0 0.106 0 0.209 0.014 0.306 0.041l-0.008-0.002zM18.817 5.337c-0.213-0.047-0.369-0.051-0.467-0.014-0.096 0.038-0.159 0.111-0.187 0.218-0.025 0.095-0.016 0.172 0.030 0.231 0.047 0.060 0.116 0.102 0.207 0.125 0.144 0.038 0.273 0.030 0.389-0.024 0.117-0.055 0.197-0.165 0.241-0.33l0.041-0.152-0.253-0.056zM21.54 5.54l-0.628 1.377 0.233 0.104-0.353 0.775-0.254-0.114 0.253-0.554-1.115-0.499-0.253 0.554-0.251-0.112 0.353-0.775 0.129 0.058c0.15-0.086 0.288-0.19 0.416-0.312 0.129-0.122 0.245-0.256 0.346-0.401l0.006-0.008c0.107-0.151 0.199-0.307 0.275-0.469l0.843 0.377zM20.836 5.473c-0.070 0.131-0.154 0.262-0.254 0.392s-0.205 0.244-0.318 0.351l-0.001 0.001c-0.112 0.108-0.224 0.194-0.337 0.258l0.732 0.328 0.534-1.171-0.356-0.159zM21.833 6.729c-0.011 0.016-0.028 0.039-0.051 0.068-0.020 0.029-0.043 0.059-0.068 0.092l-0.071 0.090c-0.021 0.026-0.039 0.048-0.057 0.069l0.002-0.003 1.616-0.672 0.291 0.201-1.005 1.439-0.221-0.152 0.672-0.961 0.101-0.133c0.034-0.045 0.061-0.079 0.079-0.101l-1.609 0.673-0.294-0.203 1.005-1.439 0.224 0.154-0.613 0.878zM23.44 10.025l-0.197-0.201 0.438-0.423-1.014-1.037 1.262-1.22 0.201 0.206-1.088 1.051 0.634 0.649 1.088-1.051 0.201 0.206-1.090 1.054 0.174 0.178-0.61 0.589zM25.712 9.238l-1.415 1.038-0.171-0.232 1.415-1.038 0.171 0.232zM26.159 8.735c0.026 0.035 0.036 0.075 0.031 0.119-0.002 0.045-0.029 0.086-0.080 0.123-0.049 0.036-0.097 0.049-0.142 0.039-0.043-0.007-0.080-0.031-0.105-0.065l-0-0c-0.023-0.029-0.036-0.065-0.036-0.105 0-0.007 0-0.014 0.001-0.020l-0 0.001c0.005-0.044 0.032-0.085 0.082-0.121 0.051-0.038 0.098-0.051 0.14-0.042 0.045 0.009 0.084 0.034 0.109 0.070l0 0.001zM24.873 10.854l-0.151-0.246 1.499-0.914 0.151 0.246-1.499 0.914zM26.462 9.18c0.048-0.030 0.091-0.038 0.127-0.024 0.038 0.012 0.070 0.038 0.090 0.071l0 0.001c0.016 0.024 0.025 0.054 0.025 0.086 0 0.009-0.001 0.018-0.002 0.027l0-0.001c-0.004 0.039-0.031 0.073-0.079 0.102-0.047 0.029-0.090 0.037-0.13 0.026-0.039-0.012-0.070-0.038-0.090-0.071l-0-0.001c-0.016-0.024-0.025-0.054-0.025-0.086 0-0.009 0.001-0.018 0.002-0.027l-0 0.001c0.008-0.041 0.036-0.075 0.082-0.104zM26.784 9.704c0.048-0.030 0.090-0.038 0.126-0.027 0.038 0.012 0.070 0.038 0.090 0.071l0 0.001c0.016 0.024 0.025 0.054 0.025 0.086 0 0.009-0.001 0.019-0.002 0.027l0-0.001c-0.004 0.038-0.031 0.072-0.079 0.102-0.047 0.028-0.090 0.037-0.13 0.026-0.038-0.012-0.070-0.038-0.090-0.071l-0-0.001c-0.016-0.024-0.025-0.054-0.025-0.086 0-0.009 0.001-0.018 0.002-0.027l-0 0.001c0.009-0.039 0.037-0.073 0.084-0.101zM27.709 13.869l-1.699 0.439-0.065-0.25 1.084-0.28c0.044-0.011 0.091-0.022 0.14-0.033 0.050-0.008 0.098-0.016 0.146-0.024l-0.002-0.010-1.509-0.202-0.060-0.235 1.228-0.892-0.003-0.009c-0.035 0.013-0.082 0.028-0.13 0.040l-0.011 0.003c-0.048 0.015-0.097 0.029-0.148 0.042l-1.075 0.277-0.065-0.251 1.699-0.439 0.095 0.371-1.228 0.889 1.507 0.193 0.095 0.371zM26.953 16.516c-0.146 0.008-0.277-0.005-0.392-0.038-0.113-0.030-0.21-0.081-0.294-0.149l0.001 0.001c-0.082-0.066-0.147-0.149-0.191-0.244l-0.002-0.004c-0.044-0.098-0.071-0.212-0.076-0.332l-0-0.002c-0.001-0.015-0.002-0.033-0.002-0.051 0-0.098 0.016-0.191 0.046-0.279l-0.002 0.006c0.037-0.1 0.092-0.188 0.167-0.265s0.167-0.138 0.276-0.185c0.111-0.045 0.24-0.072 0.386-0.080 0.194-0.010 0.359 0.014 0.495 0.072 0.138 0.058 0.246 0.146 0.321 0.265 0.078 0.118 0.121 0.261 0.13 0.429 0.008 0.159-0.021 0.301-0.087 0.424-0.064 0.126-0.161 0.226-0.293 0.301-0.129 0.077-0.291 0.12-0.485 0.131zM26.887 15.192c-0.137 0.007-0.256 0.031-0.357 0.072-0.098 0.042-0.173 0.103-0.224 0.182s-0.073 0.178-0.067 0.295c0.006 0.118 0.038 0.213 0.096 0.287s0.139 0.125 0.241 0.154c0.104 0.031 0.225 0.044 0.362 0.036 0.139-0.007 0.257-0.032 0.354-0.075s0.168-0.103 0.217-0.182c0.051-0.077 0.073-0.176 0.067-0.296-0.009-0.179-0.074-0.305-0.196-0.38s-0.286-0.106-0.493-0.095z"></path>
<path d="M27.596 18.786l-0.735-0.837-1.011 0.648 0.049-0.324 0.994-0.624-0.881-0.127 0.040-0.266 0.881 0.127-0.769-0.879 0.049-0.324 0.778 0.907 0.95-0.594-0.047 0.311-0.948 0.581 0.842 0.122-0.040 0.265-0.842-0.122 0.737 0.828-0.046 0.308z"></path>
<path d="M27.378 19.068l-0.103 0.29-1.070 0.032c-0.063 0.001-0.123 0.001-0.18-0-0.011 0-0.023 0-0.036 0-0.047 0-0.093-0.001-0.14-0.003l0.006 0c-0.055-0.002-0.108-0.007-0.159-0.015l0.007 0.001-0.004 0.012c0.047 0.030 0.107 0.073 0.18 0.128 0.075 0.056 0.15 0.113 0.224 0.171l0.822 0.662-0.104 0.293-1.635-1.366c-0.083-0.068-0.155-0.144-0.218-0.229l-0.002-0.003c-0.056-0.070-0.095-0.156-0.111-0.25l-0-0.003c-0.017-0.089-0.007-0.187 0.031-0.294 0.017-0.050 0.036-0.092 0.055-0.127 0.017-0.036 0.034-0.066 0.049-0.090l0.217 0.075c-0.010 0.016-0.023 0.041-0.036 0.066l-0.005 0.010c-0.014 0.027-0.028 0.060-0.040 0.094l-0.002 0.006c-0.023 0.064-0.029 0.123-0.021 0.177 0.006 0.055 0.026 0.107 0.059 0.156 0.032 0.048 0.073 0.094 0.125 0.137l0.189 0.162 1.9-0.091zM25.797 21.926l0.27-0.506-1.339-0.703 0.134-0.251 1.339 0.703 0.267-0.5 0.215 0.113-0.67 1.257-0.215-0.113zM24.822 22.712c-0.093 0.122-0.184 0.211-0.274 0.269s-0.181 0.084-0.27 0.080c-0.089-0.001-0.178-0.036-0.268-0.102-0.087-0.065-0.148-0.142-0.182-0.231-0.036-0.087-0.040-0.184-0.013-0.292s0.090-0.226 0.187-0.355l0.481-0.633 1.404 1.053-0.174 0.229-0.576-0.432-0.315 0.414zM24.171 22.719c0.086 0.064 0.166 0.077 0.242 0.038 0.076-0.036 0.155-0.107 0.237-0.215l0.295-0.388-0.451-0.338-0.299 0.394c-0.074 0.097-0.117 0.19-0.13 0.279-0.014 0.090 0.021 0.167 0.105 0.23zM22.942 24.763c0.144 0.211 0.246 0.404 0.305 0.58 0.059 0.179 0.074 0.343 0.046 0.491-0.029 0.151-0.103 0.29-0.223 0.416-0.1 0.104-0.197 0.202-0.295 0.298l-0.003 0.002c-0.098 0.096-0.191 0.185-0.277 0.267l-0.183-0.181c0.042-0.039 0.088-0.083 0.139-0.134 0.052-0.048 0.104-0.098 0.156-0.149 0.053-0.049 0.105-0.099 0.153-0.147 0.043-0.041 0.084-0.082 0.124-0.123l0.001-0.001c0.051-0.053 0.089-0.111 0.115-0.173 0.026-0.057 0.041-0.124 0.041-0.194 0-0.003-0-0.005-0-0.008v0c-0.004-0.087-0.022-0.169-0.051-0.245l0.002 0.005c-0.041-0.109-0.089-0.204-0.147-0.291l0.003 0.005-0.016 0.011c-0.004 0.064-0.015 0.124-0.032 0.18l0.001-0.005c-0.025 0.076-0.058 0.143-0.099 0.203l0.002-0.003c-0.046 0.068-0.109 0.129-0.188 0.183-0.127 0.086-0.25 0.129-0.372 0.129-0.005 0-0.011 0-0.017 0-0.122 0-0.236-0.037-0.33-0.1l0.002 0.001c-0.11-0.068-0.209-0.167-0.298-0.296-0.11-0.16-0.173-0.314-0.191-0.46s0.004-0.28 0.067-0.401c0.064-0.12 0.161-0.224 0.293-0.314 0.088-0.062 0.192-0.106 0.305-0.126l0.005-0.001c0.029-0.004 0.063-0.007 0.097-0.007 0.082 0 0.161 0.014 0.234 0.040l-0.005-0.002c0.11 0.036 0.218 0.1 0.325 0.191s0.21 0.209 0.31 0.355zM21.786 24.522c-0.080 0.054-0.137 0.117-0.173 0.188-0.037 0.073-0.047 0.157-0.029 0.253s0.069 0.205 0.153 0.328c0.101 0.148 0.208 0.245 0.322 0.292 0.113 0.050 0.233 0.032 0.36-0.054 0.080-0.054 0.14-0.121 0.18-0.201 0.042-0.078 0.069-0.155 0.081-0.229s0.017-0.133 0.015-0.176c-0.062-0.091-0.126-0.171-0.196-0.245l0.001 0.001c-0.063-0.069-0.135-0.129-0.214-0.178l-0.004-0.003c-0.069-0.040-0.151-0.064-0.239-0.067h-0.001c-0.084 0.001-0.169 0.031-0.256 0.090zM21.676 26.514l-0.28 0.128-0.761-0.75c-0.041-0.041-0.082-0.084-0.122-0.127l-0.003-0.003c-0.038-0.039-0.076-0.079-0.112-0.121l-0.003-0.003c-0.032-0.036-0.063-0.074-0.091-0.115l-0.003-0.004-0.012 0.005c0.011 0.055 0.021 0.128 0.032 0.219 0.011 0.093 0.022 0.187 0.031 0.281l0.089 1.053-0.283 0.129-0.143-2.13c-0.002-0.029-0.004-0.063-0.004-0.098 0-0.079 0.007-0.156 0.020-0.23l-0.001 0.008c0.014-0.098 0.052-0.185 0.107-0.258l-0.001 0.001c0.052-0.074 0.13-0.135 0.234-0.182 0.036-0.018 0.079-0.034 0.123-0.047l0.006-0.001c0.038-0.012 0.071-0.021 0.099-0.027l0.095 0.208c-0.039 0.010-0.067 0.018-0.094 0.026l0.011-0.003c-0.041 0.013-0.074 0.026-0.106 0.041l0.005-0.002c-0.062 0.028-0.109 0.064-0.142 0.108-0.035 0.042-0.060 0.093-0.071 0.149l-0 0.002c-0.013 0.056-0.017 0.118-0.012 0.185l0.013 0.249 1.377 1.308zM18.518 27.351l0.551-0.158-0.417-1.454 0.274-0.078 0.417 1.454 0.545-0.156 0.067 0.233-1.369 0.393-0.067-0.233zM17.621 26.704c-0.002-0.023-0.004-0.052-0.006-0.082l-0-0.003c-0.003-0.030-0.006-0.069-0.008-0.109l-0-0.005c-0.002-0.039-0.004-0.078-0.006-0.115-0.001-0.024-0.002-0.054-0.002-0.084v-0.001l-0.781 1.562-0.352 0.038-0.183-1.745 0.267-0.029 0.108 1.029 0.014 0.137 0.011 0.167c0.004 0.057 0.006 0.099 0.007 0.128l0.775-1.558 0.355-0.038 0.183 1.746-0.27 0.029-0.112-1.065zM13.736 25.78c0.152 0.031 0.281 0.090 0.387 0.177 0.104 0.086 0.177 0.201 0.218 0.346 0.039 0.144 0.036 0.317-0.007 0.52-0.045 0.211-0.117 0.376-0.215 0.494s-0.214 0.195-0.347 0.233c-0.135 0.037-0.279 0.039-0.433 0.008-0.094-0.019-0.176-0.047-0.254-0.084l0.007 0.003c-0.071-0.029-0.132-0.065-0.187-0.107l0.002 0.002 0.136-0.216c0.047 0.030 0.103 0.060 0.168 0.091s0.127 0.053 0.187 0.065c0.116 0.024 0.216 0.019 0.301-0.015s0.156-0.095 0.213-0.184c0.057-0.089 0.1-0.204 0.131-0.347 0.029-0.137 0.036-0.257 0.020-0.36s-0.055-0.187-0.117-0.252c-0.062-0.064-0.148-0.107-0.257-0.13-0.063-0.015-0.135-0.023-0.209-0.023-0.016 0-0.031 0-0.046 0.001l0.002-0c-0.077 0.004-0.148 0.014-0.214 0.029l0.053-0.25c0.064-0.018 0.133-0.027 0.207-0.028 0.072-0.003 0.157 0.006 0.256 0.026zM12.498 27.367l-0.288-0.107-0.003-1.066c0-0.063 0.002-0.123 0.005-0.18 0.001-0.058 0.003-0.114 0.008-0.168 0.004-0.052 0.010-0.102 0.018-0.15l-0.012-0.005c-0.032 0.047-0.076 0.106-0.134 0.178-0.058 0.074-0.118 0.147-0.178 0.22l-0.687 0.807-0.292-0.108 1.416-1.605c0.070-0.081 0.149-0.152 0.235-0.213l0.004-0.003c0.072-0.054 0.159-0.092 0.254-0.107l0.003-0c0.090-0.016 0.188-0.004 0.294 0.036 0.049 0.018 0.091 0.037 0.126 0.057 0.035 0.018 0.065 0.035 0.089 0.051l-0.081 0.214c-0.016-0.010-0.041-0.024-0.065-0.037l-0.010-0.005c-0.027-0.014-0.059-0.029-0.093-0.042l-0.006-0.002c-0.040-0.017-0.086-0.026-0.134-0.026-0.015 0-0.030 0.001-0.044 0.003l0.002-0c-0.060 0.006-0.113 0.026-0.159 0.057l0.001-0.001c-0.049 0.031-0.096 0.072-0.141 0.122l-0.168 0.186 0.039 1.894zM10.602 25.837c0.052-0.089 0.066-0.169 0.042-0.24-0.027-0.071-0.087-0.133-0.182-0.188-0.081-0.049-0.176-0.086-0.277-0.106l-0.005-0.001c-0.079-0.012-0.17-0.019-0.263-0.019-0.016 0-0.031 0-0.047 0.001l0.002-0-0.381 0.65-0.25-0.144 0.888-1.514 0.249 0.144-0.396 0.675c0.026-0.001 0.056-0.002 0.086-0.002 0.085 0 0.169 0.006 0.251 0.019l-0.009-0.001c0.099 0.017 0.206 0.058 0.321 0.125 0.155 0.089 0.252 0.2 0.292 0.331 0.038 0.13 0.017 0.263-0.063 0.399l-0.333 0.568-0.25-0.144 0.323-0.551zM8.101 24.849c-0.164-0.137-0.255-0.275-0.273-0.412s0.040-0.284 0.173-0.441l0.774-0.911 0.16 0.135-0.118 0.225 0.010 0.008c0.079-0.016 0.154-0.023 0.224-0.021 0.073 0.003 0.141 0.020 0.203 0.049l-0.003-0.001c0.064 0.029 0.134 0.074 0.21 0.137 0.080 0.067 0.141 0.143 0.182 0.226 0.040 0.082 0.053 0.167 0.040 0.256-0.014 0.091-0.059 0.181-0.136 0.271-0.113 0.133-0.253 0.191-0.419 0.174-0.168-0.015-0.364-0.111-0.588-0.288l-0.235-0.184-0.068 0.080c-0.095 0.112-0.136 0.209-0.124 0.293s0.062 0.163 0.151 0.237c0.065 0.055 0.141 0.101 0.223 0.134l0.005 0.002c0.081 0.033 0.16 0.060 0.237 0.080l-0.072 0.222c-0.105-0.023-0.197-0.056-0.284-0.098l0.008 0.003c-0.107-0.048-0.2-0.107-0.282-0.177l0.002 0.001zM8.642 24.081c0.173 0.134 0.312 0.205 0.416 0.213 0.103 0.007 0.191-0.032 0.263-0.117 0.064-0.075 0.088-0.149 0.072-0.221-0.017-0.074-0.062-0.142-0.134-0.202-0.114-0.095-0.234-0.144-0.362-0.145-0.129 0-0.248 0.065-0.359 0.195l-0.102 0.12 0.205 0.159zM8.257 22.61c0.102 0.117 0.169 0.242 0.202 0.375 0.031 0.132 0.019 0.268-0.035 0.407-0.056 0.138-0.163 0.275-0.319 0.411-0.163 0.141-0.32 0.229-0.47 0.264s-0.289 0.026-0.417-0.024c-0.13-0.052-0.246-0.137-0.35-0.256-0.055-0.063-0.104-0.133-0.145-0.208l-0.003-0.006c-0.034-0.056-0.062-0.121-0.082-0.19l-0.002-0.006 0.239-0.090c0.020 0.052 0.046 0.11 0.079 0.174s0.069 0.119 0.109 0.165c0.078 0.089 0.161 0.145 0.249 0.17s0.182 0.019 0.28-0.018c0.099-0.036 0.203-0.102 0.314-0.198 0.106-0.092 0.183-0.183 0.233-0.276s0.069-0.183 0.058-0.271c-0.011-0.089-0.053-0.175-0.126-0.259-0.055-0.065-0.117-0.121-0.185-0.168l-0.003-0.002c-0.054-0.037-0.116-0.073-0.18-0.102l-0.008-0.003 0.193-0.167c0.062 0.024 0.122 0.059 0.181 0.103 0.059 0.041 0.122 0.1 0.188 0.175zM6 22.615l0.625-0.378-0.496-0.814-0.625 0.378-0.15-0.246 1.502-0.908 0.15 0.246-0.67 0.405 0.496 0.814 0.67-0.405 0.15 0.246-1.502 0.908-0.15-0.246zM5.891 20.145c0.018-0.007 0.045-0.015 0.081-0.026 0.033-0.012 0.069-0.024 0.109-0.036l0.11-0.033c0.034-0.010 0.061-0.018 0.082-0.023l-1.704-0.375-0.122-0.332 1.648-0.605 0.093 0.252-1.1 0.404-0.159 0.051c-0.054 0.017-0.095 0.030-0.122 0.038l1.699 0.37 0.123 0.335-1.648 0.605-0.094-0.255 1.005-0.369zM4.1 16.797l1.736-0.254 0.037 0.256-1.108 0.162c-0.045 0.007-0.093 0.013-0.143 0.018l-0.148 0.008 0.001 0.010 1.478 0.363 0.035 0.24-1.317 0.755 0.001 0.010c0.047-0.011 0.095-0.021 0.145-0.028 0.049-0.009 0.1-0.018 0.152-0.025l1.098-0.161 0.037 0.256-1.737 0.254-0.055-0.379 1.317-0.752-1.477-0.353-0.055-0.379zM5.128 15.885c0.020 0.001 0.048 0.004 0.085 0.008 0.035 0.002 0.073 0.005 0.114 0.010 0.039 0.004 0.077 0.009 0.114 0.013 0.035 0.004 0.063 0.008 0.085 0.011l-1.41-1.021 0.022-0.353 1.752 0.1-0.016 0.268-1.17-0.067c-0.057-0.005-0.112-0.011-0.166-0.016-0.056-0.005-0.099-0.010-0.127-0.014l1.407 1.015-0.022 0.356-1.752-0.1 0.017-0.271 1.069 0.061zM4.738 11.749c0.049-0.124 0.109-0.224 0.18-0.302 0.069-0.078 0.146-0.13 0.231-0.155 0.083-0.026 0.171-0.021 0.262 0.015 0.1 0.039 0.168 0.098 0.205 0.175 0.035 0.077 0.047 0.168 0.035 0.274l0.012 0.005c0.044-0.058 0.094-0.107 0.148-0.149s0.114-0.069 0.18-0.081c0.067-0.014 0.142-0.004 0.225 0.028 0.089 0.035 0.161 0.092 0.213 0.172 0.054 0.077 0.081 0.176 0.083 0.296 0.002 0.118-0.029 0.257-0.093 0.417-0.031 0.077-0.064 0.149-0.101 0.217-0.036 0.067-0.073 0.123-0.114 0.177l0.002-0.003c-0.035 0.046-0.074 0.086-0.115 0.123l-0.001 0.001-0.241-0.094c0.060-0.056 0.122-0.126 0.186-0.209 0.065-0.085 0.119-0.183 0.164-0.295 0.032-0.081 0.052-0.158 0.060-0.23 0.009-0.074 0.001-0.138-0.022-0.192-0.025-0.054-0.073-0.095-0.142-0.122-0.063-0.025-0.121-0.027-0.173-0.008-0.054 0.018-0.106 0.058-0.153 0.119-0.047 0.059-0.092 0.141-0.134 0.246l-0.087 0.219-0.219-0.086 0.070-0.176c0.056-0.14 0.082-0.259 0.079-0.356-0.005-0.1-0.053-0.168-0.144-0.204-0.077-0.030-0.148-0.021-0.213 0.029-0.064 0.048-0.119 0.131-0.167 0.251-0.036 0.089-0.058 0.172-0.067 0.248-0.008 0.061-0.013 0.131-0.013 0.203 0 0.017 0 0.034 0.001 0.051l-0-0.002-0.251 0.011c-0.001-0.015-0.001-0.032-0.001-0.049 0-0.091 0.009-0.181 0.026-0.267l-0.001 0.009c0.023-0.117 0.054-0.219 0.094-0.317l-0.004 0.011zM5.884 9.476l0.598 0.419 0.552-0.777-0.598-0.419 0.167-0.235 1.438 1.006-0.167 0.235-0.641-0.449-0.552 0.777 0.641 0.449-0.167 0.235-1.438-1.006 0.167-0.235zM7.646 7.297c0.153-0.149 0.3-0.226 0.439-0.231s0.281 0.066 0.425 0.212l0.838 0.852-0.15 0.146-0.215-0.138-0.009 0.009c0.008 0.080 0.008 0.155 0 0.224-0.010 0.072-0.034 0.138-0.069 0.196l0.001-0.002c-0.035 0.061-0.087 0.126-0.158 0.195-0.075 0.073-0.156 0.126-0.243 0.159-0.046 0.018-0.1 0.028-0.156 0.028-0.037 0-0.073-0.005-0.107-0.013l0.003 0.001c-0.090-0.023-0.176-0.076-0.258-0.16-0.123-0.124-0.167-0.268-0.135-0.431 0.031-0.164 0.146-0.349 0.345-0.555l0.207-0.215-0.074-0.075c-0.103-0.104-0.196-0.154-0.282-0.151s-0.169 0.046-0.252 0.127c-0.063 0.061-0.116 0.131-0.156 0.209l-0.002 0.004c-0.035 0.063-0.069 0.138-0.098 0.216l-0.004 0.012-0.215-0.092c0.026-0.083 0.066-0.171 0.121-0.264 0.054-0.095 0.121-0.182 0.202-0.261zM8.364 7.905c-0.15 0.158-0.235 0.289-0.253 0.392-0.017 0.101 0.014 0.192 0.092 0.271 0.069 0.070 0.14 0.101 0.215 0.092 0.076-0.010 0.148-0.048 0.215-0.113 0.106-0.104 0.166-0.218 0.18-0.344 0.012-0.128-0.041-0.252-0.161-0.373l-0.11-0.112-0.179 0.187zM10.167 5.554l0.968 1.463-0.216 0.142-0.618-0.934c-0.019-0.027-0.044-0.067-0.068-0.107l-0.008-0.015-0.070-0.13-0.008 0.005 0.3 1.491-0.203 0.133-1.244-0.871-0.008 0.005c0.030 0.038 0.059 0.077 0.087 0.119 0.030 0.041 0.059 0.083 0.088 0.126l0.613 0.926-0.216 0.142-0.968-1.463 0.32-0.21 1.241 0.873-0.308-1.486 0.32-0.21zM11.449 6.055c0.007 0.018 0.017 0.045 0.028 0.080 0.013 0.032 0.026 0.068 0.039 0.108l0.036 0.109c0.011 0.033 0.019 0.060 0.025 0.082l0.335-1.711 0.329-0.129 0.644 1.633-0.25 0.098-0.43-1.090-0.055-0.158c-0.019-0.054-0.032-0.094-0.041-0.121l-0.331 1.706-0.332 0.13-0.644-1.633 0.253-0.099 0.393 0.996z"></path>
</symbol>
<symbol id="icon-logo" viewBox="0 0 73 32">
<path d="M3.355 6.702l-1.226-0.742c-0.769-0.468-1.317-0.927-1.645-1.379-0.323-0.457-0.484-0.981-0.484-1.573 0-0.887 0.306-1.608 0.919-2.161 0.618-0.554 1.419-0.831 2.403-0.831 0.941 0 1.804 0.263 2.589 0.79v1.831c-0.812-0.78-1.685-1.169-2.621-1.169-0.527 0-0.96 0.124-1.298 0.371-0.339 0.242-0.508 0.554-0.508 0.935 0 0.339 0.124 0.656 0.371 0.952s0.648 0.605 1.202 0.927l1.234 0.726c1.376 0.817 2.065 1.86 2.065 3.129 0 0.903-0.304 1.637-0.911 2.202-0.602 0.565-1.387 0.847-2.355 0.847-1.113 0-2.126-0.341-3.040-1.024v-2.048c0.871 1.102 1.879 1.653 3.024 1.653 0.505 0 0.925-0.14 1.258-0.419 0.339-0.285 0.508-0.64 0.508-1.065 0-0.688-0.495-1.339-1.484-1.952zM16.073 0.161h1.613v11.266h-1.613v-4.903h-6.331v4.903h-1.613v-11.266h1.613v4.871h6.331v-4.871zM25.71 0c1.742 0 3.191 0.551 4.347 1.653 1.161 1.102 1.742 2.484 1.742 4.145s-0.586 3.038-1.758 4.129c-1.167 1.086-2.64 1.629-4.419 1.629-1.699 0-3.116-0.543-4.25-1.629-1.129-1.091-1.694-2.457-1.694-4.097 0-1.683 0.57-3.075 1.71-4.177s2.581-1.653 4.322-1.653zM25.774 1.532c-1.29 0-2.352 0.403-3.186 1.21-0.828 0.806-1.242 1.836-1.242 3.089 0 1.215 0.417 2.226 1.25 3.032s1.876 1.21 3.129 1.21c1.258 0 2.306-0.411 3.145-1.234 0.844-0.823 1.266-1.847 1.266-3.073 0-1.194-0.422-2.196-1.266-3.008-0.839-0.817-1.871-1.226-3.097-1.226zM33.685 11.427v-11.282h3.573c1.075 0 1.933 0.29 2.572 0.871s0.96 1.36 0.96 2.339c0 0.656-0.164 1.237-0.492 1.742s-0.777 0.874-1.347 1.105c-0.57 0.226-1.387 0.339-2.452 0.339h-1.194v4.887h-1.621zM36.976 1.581h-1.669v3.524h1.766c0.656 0 1.161-0.153 1.516-0.46 0.355-0.312 0.532-0.755 0.532-1.331 0-1.156-0.715-1.734-2.145-1.734zM10.936 27.871c0 0.962-0.331 1.731-0.992 2.306-0.656 0.575-1.575 0.863-2.758 0.863h-6.46v-11.177h5.403c0.699 0 1.306 0.067 1.823 0.202 0.521 0.134 0.941 0.32 1.258 0.556 0.317 0.231 0.554 0.505 0.71 0.823s0.234 0.664 0.234 1.040c0 0.409-0.081 0.788-0.242 1.137-0.161 0.344-0.363 0.629-0.605 0.855-0.237 0.221-0.476 0.376-0.718 0.468 0.763 0.301 1.344 0.683 1.742 1.145 0.403 0.457 0.605 1.051 0.605 1.782zM7 23.081c0-0.538-0.177-0.895-0.532-1.073s-0.909-0.266-1.661-0.266h-0.71v2.677h0.726c0.769 0 1.323-0.089 1.661-0.266 0.344-0.177 0.516-0.535 0.516-1.073zM7.548 27.734c0-0.957-0.694-1.435-2.081-1.435h-1.371v2.863h1.371c1.387 0 2.081-0.476 2.081-1.427zM24.887 31.040h-3.452l-0.911-2.266h-4.855l-0.927 2.266h-3.452l4.944-11.177h3.726l4.927 11.177zM19.75 26.831l-1.637-4.081-1.653 4.081h3.29zM38.129 31.040h-4.113l-4.274-5.234v5.234h-3.371v-11.177h3.371v5l4.048-5h3.661l-4.161 5.234 4.839 5.944zM48.024 31.040h-8.427v-11.177h8.29v2.242h-4.919v2.048h4.694v2.25h-4.694v2.387h5.056v2.25zM61.113 31.040h-3.621l-0.879-1.984c-0.323-0.726-0.613-1.255-0.871-1.589-0.258-0.339-0.511-0.554-0.758-0.645-0.242-0.097-0.556-0.145-0.943-0.145h-0.379v4.363h-3.371v-11.177h5.734c0.925 0 1.683 0.188 2.274 0.565s1.016 0.833 1.274 1.371c0.263 0.538 0.395 1.048 0.395 1.532 0 0.564-0.11 1.043-0.331 1.435-0.215 0.387-0.443 0.669-0.685 0.847s-0.513 0.347-0.815 0.508c0.36 0.21 0.656 0.46 0.887 0.75 0.237 0.285 0.556 0.866 0.96 1.742l1.129 2.427zM56.532 23.395c0-0.516-0.169-0.876-0.508-1.081s-0.89-0.306-1.653-0.306h-0.71v2.694h0.726c0.823 0 1.384-0.089 1.685-0.266 0.306-0.183 0.46-0.53 0.46-1.040zM73.064 19.863l-4.379 6.056v5.121h-3.371v-5.056l-4.46-6.121h3.5l2.564 3.516 2.573-3.516h3.573z"></path>
</symbol>
  </defs>
</svg>